<svg xmlns="http://www.w3.org/2000/svg" xmlns:xlink="http://www.w3.org/1999/xlink" width="1503.016" height="1261.8" viewBox="0 0 1503.016 1261.8"><defs><filter id="a" x="0" y="0" width="1503.016" height="1261.8" filterUnits="userSpaceOnUse"><feOffset dy="22" input="SourceAlpha"/><feGaussianBlur stdDeviation="8.5" result="b"/><feFlood flood-color="#54ada8" flood-opacity="0.38"/><feComposite operator="in" in2="b"/><feComposite in="SourceGraphic"/></filter></defs><g transform="translate(-528.163 2.104)"><g transform="matrix(1, 0, 0, 1, 528.16, -2.1)" filter="url(#a)"><path d="M-12131.955,1651.646l-986.711-3.6s-136.914,80.92-99.043,312.527,72.828,341.915-146.435,528.069-178.229,319.874,127.548,347.542,1186.274,22.228,1186.274,22.228l-48.154-1142.667Z" transform="translate(13527.84 -1644.54)" fill="#fff"/></g><g transform="translate(1602 871.738)"><rect width="8.979" height="26.082" transform="matrix(0.248, 0.969, -0.969, 0.248, 63.931, 0)" fill="#54ada8"/><rect width="8.979" height="26.082" transform="translate(51.042 12.573) rotate(75.627)" fill="#54ada8"/><rect width="8.979" height="26.082" transform="translate(38.154 25.145) rotate(75.627)" fill="#54ada8"/><rect width="8.979" height="26.082" transform="translate(25.265 37.717) rotate(75.624)" fill="#54ada8"/></g><g transform="translate(982.193 233.713)"><path d="M593.844,137.13,446.2,223.757c-37.433-11.488-85.127-7.937-116.6,10.53-38.292,22.465-38.04,58.457.563,80.387a117.8,117.8,0,0,0,29.046,11.391,154.937,154.937,0,0,0,23.084,3.982c30.707,2.988,63.479-2.487,87.1-16.348,28.615-16.79,35.7-41.128,21.34-61.51l20.374-11.953-.577-12.935,21.44-.149-.542-12.112,21.443-.149-.542-12.115,21.443-.149-.542-12.112,21.44-.149-.539-12.115,22.89-.161,6.984-4.1,7.708-31.8ZM386.074,302.881c-9.97,5.848-26.2,5.962-36.247.255s-10.116-15.079-.147-20.927,26.2-5.962,36.247-.255S396.041,297.033,386.074,302.881Z" transform="translate(-255.979 17.886)" fill="#d0f1ef"/><path d="M565.673,497.833,366.55,383.344c-13.407-7.74-11.725-21.261,3.756-30.2l193.261-111.58c15.481-8.939,38.9-9.908,52.3-2.168L815,353.888c13.406,7.74,11.725,21.258-3.753,30.2L617.978,495.665C602.5,504.6,579.08,505.573,565.673,497.833Z" transform="translate(-147.038 205.156)" fill="rgba(84,173,168,0.11)"/><g transform="translate(155.159 232.149)"><g transform="translate(276.66)"><path d="M653.319,374.724l-34.428-19.875L745.82,281.566c5.994-3.463,5.994-9.094,0-12.554L616.152,194.148c-5.994-3.463-15.747-3.463-21.745,0L467.479,267.43l-34.425-19.875,126.929-73.282c24.976-14.42,65.618-14.42,90.594,0l129.668,74.864c24.976,14.42,24.976,37.885,0,52.3Z" transform="translate(-433.054 -163.458)" fill="#54ada8"/></g><g transform="translate(0 36.503)"><path d="M886.667,359.431c0-18.4-11.189-39.783-24.994-47.755L631.705,178.9c-6.182-3.568-11.83-3.82-16.193-1.383l-.012-.009L340.918,337.071l265.53,200.085L876.964,380.147a12.536,12.536,0,0,0,2.391-1.386l0,0h0C883.872,375.337,886.667,368.625,886.667,359.431Z" transform="translate(-334.194 -175.917)" fill="#c1ecea"/><path d="M454.526,433.8,725.042,276.79a12.54,12.54,0,0,0,2.391-1.386l0,0h0c4.515-3.422,7.31-10.134,7.31-19.328,0-8.786-2.569-18.238-6.736-26.6L419.644,407.512Z" transform="translate(-182.272 -72.559)" fill="#9ed9d6"/><path d="M593.585,432.3,363.614,299.53c-13.8-7.969-24.991-29.35-24.991-47.752h0c0-18.4,11.189-26.863,24.991-18.894L593.585,365.657c13.8,7.969,24.991,29.347,24.991,47.752h0C618.576,431.814,607.387,440.272,593.585,432.3Z" transform="translate(-338.623 -71.773)" fill="#9ed9d6"/></g><path d="M435.385,303.34,407.737,287.39c-2.751-1.588-4.983-5.848-4.983-9.519h0c0-3.668,2.233-5.353,4.983-3.765l27.648,15.95c2.751,1.588,4.981,5.851,4.981,9.519h0C440.365,303.243,438.136,304.928,435.385,303.34Z" transform="translate(-214.868 48.915)" fill="#fff"/></g><path d="M343.029,197.741l47.248,26.84,48.212-28.287-.128-12.3-.411.241-.038-.869,21.441-.149-.126-12.115,21.026-.147-.126-12.116,21.026-.147-.126-12.116,21.026-.146-.126-12.116,22.478-.157,6.984-4.1,7.708-31.8-.128-12.3-3.72,11.791-34.027-4.546Z" transform="translate(-174.962 -80.887)" fill="#54ada8"/><g transform="translate(53.334)"><g transform="translate(114.605)"><path d="M390.234,215.608l48.211-28.286-.578-12.933,21.441-.15-.541-12.112,21.441-.15-.541-12.112,21.441-.15-.541-12.112,21.441-.15-.541-12.112,22.893-.161,6.984-4.1,7.708-31.8-37.874-5.059L342.985,188.769Z" transform="translate(-342.985 -84.219)" fill="#9ed9d6"/></g><g transform="translate(114.605 84.119)"><path d="M422.34,141.364c-4.855-6.894-12.144-13.336-21.9-18.879a113.029,113.029,0,0,0-22.632-9.554L342.985,133.36l47.248,26.84Z" transform="translate(-342.985 -112.931)" fill="#54ada8"/></g><g transform="translate(173.758 4.21)"><path d="M518.8,91.842l1.293-5.337-6.355-.849L363.176,173.992l7.929,4.5Z" transform="translate(-363.176 -85.656)" fill="#54ada8"/></g><g transform="translate(0.012 138.179)"><path d="M304.392,148.874l-.52-17.491,5.6,11.813Z" transform="translate(-303.872 -131.383)" fill="#d3d0cf"/></g><path d="M333.166,215.02c38.6,21.929,100.939,21.5,139.231-.973,19.2-11.265,28.7-25.928,28.548-40.513l0,.009-.536-18.534-3.147,3.507c-4.441-9.135-12.906-17.737-25.433-24.853-38.605-21.929-100.939-21.493-139.231.973S294.56,193.094,333.166,215.02ZM388.928,182.3c10.049,5.71,10.116,15.079.146,20.927s-26.2,5.962-36.247.255-10.116-15.079-.147-20.927S378.879,176.594,388.928,182.3Z" transform="translate(-303.524 -19.998)" fill="#54ada8"/><g transform="translate(0 80.017)"><path d="M332.985,209.054c38.605,21.929,100.942,21.493,139.234-.973s38.037-58.457-.565-80.387-100.939-21.493-139.231.976S294.383,187.125,332.985,209.054Zm55.765-32.717c10.049,5.707,10.116,15.077.147,20.927s-26.2,5.962-36.247.252-10.116-15.077-.146-20.927S378.7,170.628,388.75,176.338Z" transform="translate(-303.867 -111.531)" fill="#f2f2f2"/></g><path d="M377.394,183.2c-8.493,1.327-17.889.167-24.575-3.63-7.207-4.1-9.249-10.067-6.17-15.279l-17.488-13.867s-9.141-10.313-18.191-20.538c-14.08,20.582-6.668,44.825,22.187,61.217,12.73,7.231,26.992,11.338,43.17,13.72Z" transform="translate(-303.515 3.915)" fill="#54ada8"/><g transform="translate(0 80.017)"><path d="M332.985,209.054a117.565,117.565,0,0,0,29.046,11.391,154.558,154.558,0,0,0,23.084,3.984c30.707,2.988,63.479-2.487,87.1-16.348,38.292-22.468,38.037-58.457-.565-80.387s-100.939-21.493-139.231.976S294.383,187.125,332.985,209.054Zm55.765-32.717c10.049,5.707,10.116,15.077.147,20.927s-26.2,5.962-36.247.252-10.116-15.077-.146-20.927S378.7,170.628,388.75,176.338Z" transform="translate(-303.867 -111.531)" fill="#9ed9d6"/></g><g transform="translate(10.876 86.286)"><path d="M307.583,165.1c1.878-11.2,10.184-22.149,24.973-30.827,34.07-19.99,89.53-20.376,123.876-.867,17.069,9.7,25.691,22.483,25.887,35.345,2.446-14.6-6.041-29.652-25.477-40.691-34.346-19.512-89.809-19.123-123.876.864C315.828,138.973,307.387,152.075,307.583,165.1Z" transform="translate(-307.58 -113.67)" fill="#54ada8"/></g></g><g transform="translate(0 134.677)"><path d="M326.653,292.327a38.622,38.622,0,0,1-19.316-4.984c-13.834-7.849-21.534-23.626-21.671-44.424-.273-37.932,26.13-84.412,58.853-103.614,17.927-10.521,35.418-11.992,49.252-4.131A38.683,38.683,0,0,1,408.091,149.5c4.8,8.177,7.272,18.305,7.351,30.106.27,37.932-26.136,84.415-58.859,103.614C346.256,289.271,336.072,292.327,326.653,292.327Zm47.77-148.2c-6.949,0-14.737,2.411-22.861,7.181-28.9,16.955-52.22,58.006-51.98,91.514.105,15.613,5.3,27.124,14.625,32.415s21.868,3.867,35.333-4.031c28.9-16.955,52.22-58.006,51.986-91.514-.061-9.194-1.942-17.2-5.438-23.154h0a24.183,24.183,0,0,0-21.666-12.41Z" transform="translate(-285.663 -130.188)" fill="#54ada8"/></g><path d="M325.334,154.452l27.484,6.736,3.947-20.394c-9.967,5.848-26.2,5.962-36.247.252Z" transform="translate(-218.402 24.957)" fill="#9ed9d6"/><path d="M313.806,147.114a117.566,117.566,0,0,0,29.046,11.391,154.562,154.562,0,0,0,23.084,3.984c30.707,2.988,63.479-2.487,87.1-16.348l-111.925-2.514Z" transform="translate(-231.355 30.426)" fill="#9ed9d6"/><path d="M343.933,153.767a162.514,162.514,0,0,1-24.308-6.264v17.174c5.912,2.063,15.662,5.051,24.012,6.155C369.264,174.217,343.933,153.767,343.933,153.767Z" transform="translate(-220.126 37.904)" fill="#54ada8"/><path d="M336.053,152.849a114.018,114.018,0,0,1-15.832-5.842c-14.971-7.008,3.967,18.956,3.967,18.956s5.1,2.033,11.865,4.107Z" transform="translate(-230.093 34.629)" fill="#54ada8"/></g><g transform="translate(1296.132 661.85)"><path d="M465.628,251.477,416.657,283.06l-23.838-3.871,58.227-28.148Z" transform="translate(-392.819 -190.429)" fill="#32928d"/><path d="M431.24,291.4S484.614,260.925,491,248.148c2.5-5,6.39-10.234-9.185-17.8l-71.181,50.74,3.085,17.47Z" transform="translate(-358.432 -230.353)" fill="#32928d"/></g><g transform="translate(1212.235 295.48)"><path d="M426.578,307.158s-14.1-7.114-22.767,3.478-21.047,35.6-21.431,52.5,13.371,15.753,21.548,11.754,32.06-38.643,33.508-45.432-1.705-15.97-4-17.766S426.578,307.158,426.578,307.158Z" transform="translate(-329.081 279.72)" fill="#32928d"/><path d="M416.1,306.681l.653,14.614a8.289,8.289,0,0,1-4.131,7.6,16.253,16.253,0,0,1-10.881,1.691c-10.626-1.708-11.572-4.743-12.334-19.354S416.1,306.681,416.1,306.681Z" transform="translate(-315.527 276.799)" fill="#ffc2b0"/><g transform="translate(0 259.275)"><path d="M408.954,297.567s-14.1-7.113-22.767,3.478-21.047,35.6-21.431,52.492,13.372,15.756,21.548,11.757,32.06-38.643,33.508-45.435-1.705-15.967-4-17.763S408.954,297.567,408.954,297.567Z" transform="translate(-363.091 1.937)" fill="#32928d"/><path d="M398.48,297.09l.653,14.614a8.289,8.289,0,0,1-4.131,7.6A16.272,16.272,0,0,1,384.122,321c-10.626-1.708-11.576-4.743-12.334-19.354S398.48,297.09,398.48,297.09Z" transform="translate(-349.537 -0.985)" fill="#ffc2b0"/><path d="M538.991,221.6c-4.175-67.929-73.566,9.993-73.566,9.993l-47.491,46.551-42.769,46.982a42.153,42.153,0,0,0-10.623,33.865l17.3,131.734a12.946,12.946,0,0,0,12.985,11.25,43.711,43.711,0,0,0,6.407-.56c15.434-2.405,14.294-17.077,14.294-17.077l-3.161-123.211,89.815-54.142S543.166,289.529,538.991,221.6Z" transform="translate(-364.183 -193.799)" fill="#ffd295"/></g><path d="M414.949,246.056l-12.78-4.693c-.3,0-21.727,20.725-21.54,27.979l9.615,3.085,24.141-23.435Z" transform="translate(-332.446 157.262)" fill="#32928d"/><path d="M556.615,230.541c-4.45-67.912-73.566,10-73.566,10l-47.491,46.551-42.769,46.979a42.161,42.161,0,0,0-10.623,33.865l17.3,131.736a12.943,12.943,0,0,0,12.982,11.25,44.1,44.1,0,0,0,6.407-.56c15.434-2.405,14.294-17.08,14.294-17.08l-3.161-123.208,89.815-54.142S560.684,292.632,556.615,230.541Z" transform="translate(-330.173 82.747)" fill="#ffd295"/><path d="M494.312,142.674c52.61,21.809,51.555,52.908,51.555,52.908S535.56,309.591,539.078,385.73c1.471,31.832-169.111,34.261-143.672-50.658,29.995-100.124,18.75-181.182,32.793-193.4S480.7,137.032,494.312,142.674Z" transform="translate(-308.921 -47.773)" fill="#54ada8"/><path d="M468.164,165.062c-2.751,10.682-16.746,16.313-31.257,12.575s-24.045-15.428-21.294-26.11,16.746-16.31,31.258-12.572S470.915,154.383,468.164,165.062Z" transform="translate(-265.848 -42.589)" fill="#ffc2b0"/><path d="M447.45,182.945a38.171,38.171,0,0,1-9.507-1.222,35.015,35.015,0,0,1-18.446-11.3c-4.541-5.564-6.2-11.912-4.658-17.874,3.088-12.009,18.49-18.466,34.319-14.382a35.023,35.023,0,0,1,18.443,11.3c4.541,5.567,6.2,11.912,4.658,17.872C469.8,176.907,459.526,182.945,447.45,182.945Zm-7.919-40.987c-9.771,0-17.942,4.547-19.823,11.848-1.125,4.371.182,9.147,3.689,13.442a29.959,29.959,0,0,0,15.8,9.6c13.146,3.375,25.794-1.441,28.2-10.761,1.125-4.371-.182-9.147-3.689-13.442a29.934,29.934,0,0,0-15.8-9.607A33.737,33.737,0,0,0,439.531,141.958Z" transform="translate(-267.509 -44.24)" fill="#fff"/><path d="M420.562,143.79s.457,2.109-.454,18.78c-.287,5.241,18.065,10.137,22.808,5.394s2.845-9.677,3.985-27.513S420.562,143.79,420.562,143.79Z" transform="translate(-256.266 -51.262)" fill="#ffc2b0"/><path d="M446.9,135.744s-4.521,16.538-26.8,22.881l.337-15.033Z" transform="translate(-256.266 -46.555)" fill="#ea9c92"/><path d="M486.572,141.4a40.5,40.5,0,1,1-49.343-29.069A40.5,40.5,0,0,1,486.572,141.4Z" transform="translate(-281.824 -94.235)" fill="#ffc2b0"/><path d="M456.851,131.813s-22.3,9.551-37.732,9.659-12.035-12.818-12.035-12.818l45.827-6.624Z" transform="translate(-282.011 -73.02)" fill="#ea9c92"/><path d="M426.11,166.611s19.421-8.244,36.461-4.808a17.848,17.848,0,0,1,10.3,6.12,6.079,6.079,0,0,0,3.117,2.253c3.021.686,7.966-11.851,13.84-12.135s9.791,3.87,4.975,11.581-3.188,16.336-.97,17.573,25.715-16.761,4.987-57.825-73.385-18.947-81.576-10.623c0,0-8.628,7.515-15.642.826C401.6,119.574,393.731,178.488,426.11,166.611Z" transform="translate(-293.605 -105.302)" fill="#f3b055"/><path d="M479.367,195.735v30.806a12.558,12.558,0,0,1-4.1,9.276l-63.286,57.7,7.19,11L502.75,243.9a16.984,16.984,0,0,0,6.923-11.974l5.648-53.726Z" transform="translate(-271.934 35.369)" fill="#ffc2b0"/><path d="M463.085,150.495s19.2,28.873,26.35,104.877c0,0-32.8,10.606-51.409,4.585S463.085,150.495,463.085,150.495Z" transform="translate(-230.592 -18.089)" fill="#54ada8"/><path d="M439.022,162.956s-7.518,40.226-7.943,59.131a12.066,12.066,0,0,0,7.943,11.655h0Z" transform="translate(-235.095 5.957)" fill="#32928d"/></g><g transform="translate(1211.729 601.36)"><path d="M552.02,267.526l-13.987-1.846-90.292-52.129c-2.895-1.673-7.951-1.462-11.294.466l-63.98,36.927-8.455-1.116v8.42h.006a3.3,3.3,0,0,0,1.942,2.965l102.328,59.078c2.895,1.67,7.951,1.462,11.291-.469l69.678-40.214c1.881-1.087,2.819-2.485,2.763-3.8h0Z" transform="translate(-364.006 -204.466)" fill="#32928d"/><path d="M484.179,222.426l-6.416-3.7H407.238l-34.77,20.06-8.455-1.116v8.42h.006a3.3,3.3,0,0,0,1.942,2.965L468.288,308.13a10.57,10.57,0,0,0,5.827,1.09Z" transform="translate(-364.006 -192.306)" fill="#32928d"/><path d="M367.765,225.684l-3.753-.5v8.42h.006a3.3,3.3,0,0,0,1.942,2.965l1.8,1.04Z" transform="translate(-364.006 -179.828)" fill="#5793ce"/><path d="M399.955,259.231a13.117,13.117,0,0,0,9.6-.595V244.31h-9.6Z" transform="translate(-294.645 -142.929)" fill="#1f8781"/><path d="M468.292,317.117,365.964,258.038c-2.895-1.673-2.531-4.591.811-6.522L436.451,211.3c3.343-1.931,8.4-2.139,11.294-.469l102.328,59.078c2.895,1.673,2.531,4.591-.812,6.522l-69.678,40.214C476.243,318.579,471.186,318.787,468.292,317.117Z" transform="translate(-364.01 -209.706)" fill="#fff"/><path d="M456.126,293.941l-85.083-49.123c-2.408-1.389-2.107-3.815.674-5.42l37.337-21c2.78-1.6,6.985-1.778,9.39-.387l85.086,49.12c2.405,1.392,2.1,3.817-.677,5.423l-37.337,20.995C462.736,295.157,458.531,295.333,456.126,293.941Z" transform="translate(-353.576 -195.487)" fill="#d4ecff"/></g><path d="M391.166,211.928l-1.061,7.061a52.2,52.2,0,0,0,.463,18.1l1.26,6.223a8.748,8.748,0,0,0,7.011,6.873h0a4.826,4.826,0,0,0,5.66-4.213l1.688-15.094s3.861,5.063,5.728,5.063-2.086-15.117-6.3-23.672S391.166,211.928,391.166,211.928Z" transform="translate(896.963 389.089)" fill="#ffc2b0"/><path d="M429.153,185.321l-10.981,21.733a42.579,42.579,0,0,0-4.491,16.495l-4.77,74.328-14.444-.343-6.557-83.472a30.676,30.676,0,0,1,.372-7.717l7.491-42.329Z" transform="translate(893.661 303.483)" fill="#ffc2b0"/><g transform="translate(1201.613 557.1)"><path d="M470.312,351.942l-8.581-11.2L371.5,288.5c-2.892-1.676-5.233-6.161-5.227-10.023l.076-73.868-5.186-6.774,4.872-2.824.006.009a3.289,3.289,0,0,1,3.539.2l102.254,59.2a11.552,11.552,0,0,1,4.441,5.868,11.83,11.83,0,0,1,.786,4.152L476.98,344.9c0,2.171-.747,3.683-1.913,4.289h0Z" transform="translate(-359.38 -194.599)" fill="#32928d"/><path d="M407.914,309.583l-6.41-3.712-35.186-61.118.035-40.141-5.186-6.774,4.872-2.824.006.009a3.289,3.289,0,0,1,3.539.2l102.254,59.2a10.591,10.591,0,0,1,3.853,4.506Z" transform="translate(-359.38 -194.599)" fill="#32928d"/><path d="M363.467,200.845l-2.3-3.006,4.872-2.824.006.009a3.289,3.289,0,0,1,3.539.2l1.8,1.043Z" transform="translate(-359.38 -194.599)" fill="#5793ce"/><path d="M406.181,215.244a13.1,13.1,0,0,1,4.272,8.614l-9.993,5.769-4.787-8.315Z" transform="translate(-292.794 -154.759)" fill="#1f8781"/><path d="M468.143,255.394l-102.251-59.2c-2.895-1.676-5.244.1-5.247,3.955l-.088,80.448c0,3.861,2.338,8.347,5.23,10.023l102.254,59.2c2.892,1.676,5.241-.1,5.247-3.955l.085-80.448C473.379,261.555,471.038,257.07,468.143,255.394Z" transform="translate(-360.557 -192.744)" fill="#9ed9d6"/></g><path d="M436.647,228.555l-1.638,3.393a22.724,22.724,0,0,1-8.546,9.475l-10.158,6.261a10.114,10.114,0,0,1-10.368.24c-.114-.067-.232-.138-.346-.208a6.114,6.114,0,0,1-.864-9.39l10.615-10.91s-5.962,4.568-7.635,2.728c-1.225-1.348,5.783-7.928,11.165-8.142s10.585-4.444,10.585-4.444Z" transform="translate(922.83 406.804)" fill="#ffc2b0"/><path d="M441.221,137.295s-38.91,42.338-54.6,81.178c0,0,13.3,23.971,45.874,33.376S441.221,137.295,441.221,137.295Z" transform="translate(891.343 251.918)" fill="#54ada8"/><path d="M405.406,215.665l6.308-60.921-14.86,57.077A84.5,84.5,0,0,0,405.406,215.665Z" transform="translate(911.1 285.59)" fill="#32928d"/><path d="M422.089,136.27,411.633,133.4s4.992,7.852,12.279,9.853,8.42-4.166,8.42-4.166Z" transform="translate(939.62 244.4)" fill="#fff"/><path d="M392.391,192.284a54.922,54.922,0,1,1,54.919-54.919A54.983,54.983,0,0,1,392.391,192.284Zm0-97.855a42.933,42.933,0,1,0,42.931,42.936A42.979,42.979,0,0,0,392.391,94.429Z" transform="translate(726.814 41.559)" fill="#54ada8"/><path d="M571.357,218.07a28.89,28.89,0,1,1,28.888-28.888A28.926,28.926,0,0,1,571.357,218.07Zm0-48.888a20,20,0,1,0,20,20A20.021,20.021,0,0,0,571.357,169.182Z" transform="translate(1179.754 263.045)" fill="#54ada8"/><path d="M347.144,393.538l-34.817-70.8,70.8-34.809,34.817,70.8Zm-13.689-63.606,20.881,42.486,42.479-20.881-20.881-42.478Z" transform="translate(726.086 648.057)" fill="#54ada8"/><path d="M468.449,179.024l-14.1-28.674,28.668-14.1,14.1,28.671Zm-5.543-25.758,8.455,17.2,17.2-8.455-8.452-17.2Z" transform="translate(1085.645 252.911)" fill="#54ada8"/><rect width="26.973" height="26.973" transform="translate(980 668.146) rotate(-26.18)" fill="#54ada8"/><g transform="translate(1484.088 197.408)"><path d="M539.579,128.027,461.243,82.8a4.007,4.007,0,0,0-4.049-.325l.006-.05-7.6,4.389s3.363,1.228,5.341,1.951v57.048c0,4.641,2.821,10.034,6.3,12.044l74.876,43.229v6.695l7.676-4.421-.041-.015c1.3-.791,2.13-2.528,2.13-5.025V140.071C545.883,135.43,543.062,130.036,539.579,128.027Z" transform="translate(-447.201 -82.067)" fill="#f3b055"/><path d="M533.422,204.624l-78.336-45.23c-3.481-2.01-6.3-7.4-6.3-12.041V89.1c0-4.641,2.824-6.777,6.3-4.767l78.336,45.23c3.48,2.01,6.3,7.4,6.3,12.041v58.249C539.727,204.5,536.9,206.634,533.422,204.624Z" transform="translate(-448.781 -79.145)" fill="#ffd295"/><g transform="translate(22.076 50.301)"><path d="M466.889,109.113c0,3.369-2.367,4.737-5.288,3.05a11.683,11.683,0,0,1-5.285-9.153c0-3.372,2.367-4.737,5.285-3.053A11.678,11.678,0,0,1,466.889,109.113Z" transform="translate(-456.316 -99.236)" fill="#fff"/><path d="M472.353,112.267c0,3.372-2.367,4.737-5.285,3.053a11.68,11.68,0,0,1-5.285-9.155c0-3.369,2.364-4.737,5.285-3.053A11.692,11.692,0,0,1,472.353,112.267Z" transform="translate(-445.768 -93.147)" fill="#fff"/><path d="M477.818,115.424c0,3.369-2.364,4.734-5.285,3.05a11.683,11.683,0,0,1-5.285-9.155c0-3.369,2.367-4.734,5.285-3.05A11.676,11.676,0,0,1,477.818,115.424Z" transform="translate(-435.222 -87.057)" fill="#fff"/></g></g><g transform="translate(840 708.166)"><path d="M393.673,317.067l-111.724-64.5c-2.211-1.278-4.212-1.329-5.776-.464l.009-.072-10.84,6.261s4.8,1.75,7.616,2.781v81.364c0,6.619,4.025,14.307,8.991,17.173l106.787,61.657v9.545l10.951-6.3-.06-.021c1.849-1.129,3.037-3.6,3.037-7.164V334.245C402.665,327.626,398.64,319.934,393.673,317.067Z" transform="translate(-261.923 -251.518)" fill="#54ada8"/><path d="M385.255,425.636,273.531,361.13c-4.966-2.866-8.991-10.555-8.991-17.178V260.88c0-6.623,4.025-9.664,8.991-6.8l111.724,64.506c4.966,2.866,8.991,10.554,8.991,17.173v83.076C394.246,425.457,390.221,428.5,385.255,425.636Z" transform="translate(-264.54 -246.676)" fill="#9ed9d6"/><g transform="translate(31.484 71.739)"><path d="M287.01,282.449c0,4.8-3.373,6.755-7.539,4.349a16.667,16.667,0,0,1-7.539-13.055c0-4.809,3.378-6.755,7.539-4.353A16.656,16.656,0,0,1,287.01,282.449Z" transform="translate(-271.932 -268.361)" fill="#fff"/><path d="M292.372,285.543c0,4.809-3.378,6.755-7.539,4.353a16.657,16.657,0,0,1-7.539-13.059c0-4.8,3.373-6.755,7.539-4.349A16.667,16.667,0,0,1,292.372,285.543Z" transform="translate(-254.456 -258.272)" fill="#fff"/><path d="M297.734,288.64c0,4.8-3.378,6.755-7.539,4.349a16.649,16.649,0,0,1-7.539-13.054c0-4.809,3.373-6.755,7.539-4.353A16.674,16.674,0,0,1,297.734,288.64Z" transform="translate(-236.98 -248.183)" fill="#fff"/></g></g><ellipse cx="158.5" cy="158" rx="158.5" ry="158" transform="translate(1667 894)" fill="#9ed9d6"/></g></svg>